<svg viewBox="0 0 224.63448 298.6131" xmlns="http://www.w3.org/2000/svg"><path d="M221.876 176.644c.018 60.508-49.029 109.57-109.537 109.57S2.784 237.151 2.802 176.643c-.018-60.508 49.029-109.57 109.537-109.57s109.555 49.062 109.537 109.57z" fill="#784421" stroke="#000" stroke-linecap="round" stroke-linejoin="round" stroke-width="4"/><path d="M215.254 139.063c.077 1.682.125 3.393.125 5.094 0 60.464-49.067 109.53-109.532 109.53-47.262 0-87.59-29.998-102.937-71.968 2.653 58.112 50.674 104.469 109.437 104.469 60.465 0 109.532-49.067 109.532-109.531 0-13.203-2.338-25.87-6.625-37.594z" fill-opacity=".314"/><path d="M120.52 287.213c0 9.091 14.665 9.382 32.735 9.382s32.735.693 32.735-9.382c0-17.716-14.666-32.094-32.735-32.094s-32.735 14.378-32.735 32.094z" fill="#502d16" stroke="#000" stroke-linecap="round" stroke-linejoin="round" stroke-width="4"/><path d="M196.974 141.358c0 45.175-55.12 81.838-81.837 81.838-25.719 0-81.838-36.663-81.838-81.838s24.625-81.837 81.838-81.837c57.222 0 81.837 36.663 81.837 81.837z" fill-opacity=".314"/><path d="M165.845 295.994c0-16.368-9.443-26.44-9.443-26.44s3.777 13.85 3.148 26.44h6.295z" fill-opacity=".314" fill-rule="evenodd" stroke="#000" stroke-linejoin="round" stroke-width="4"/><path d="M109.677 46.348c-30.129.61-50.931 11.653-63.625 28.75C21.988 72.51 1.99 98.723 1.99 98.723s18.891 9.446 32.062 1.53c-2.399 8.713-3.562 18.107-3.562 27.907 0 45.175 56.125 81.844 81.844 81.844 26.716 0 81.843-36.67 81.843-81.844 0-9.8-1.163-19.194-3.562-27.906 13.171 7.915 32.031-1.531 32.031-1.531s-19.971-26.205-44.031-23.625c-13.062-17.595-34.708-28.75-66.281-28.75-.894 0-1.778-.018-2.657 0z" fill="#784421" stroke="#000" stroke-linecap="round" stroke-linejoin="round" stroke-width="4"/><path d="M118.317 45.143c16.212-43.592 54.91 3.095 66.007-5.106 11.5-8.5 2-32 6-37.5s22.61 33.058 15 47.5c-7.453 14.14-39.014 12.936-59.693 12.793-11.674-.076-29.788-10.116-27.314-17.687z" fill="#502d16" fill-rule="evenodd" stroke="#000" stroke-width="4"/><path d="M190.896 101.348l-1.875 2.656c.25 3.075.344 6.202.344 9.375 0 45.174-55.127 81.844-81.844 81.844-20.706 0-61.096-23.756-76.062-56.594 7.616 40.246 57.172 71.375 80.875 71.375 26.716 0 81.843-36.67 81.843-81.844 0-9.392-1.075-18.41-3.28-26.812z" fill-opacity=".314"/><path d="M105.522 287.213c0 9.091-14.666 9.382-32.735 9.382s-32.736.693-32.736-9.382c0-17.716 14.666-32.094 32.736-32.094s32.735 14.378 32.735 32.094z" fill="#502d16" stroke="#000" stroke-linecap="round" stroke-linejoin="round" stroke-width="4"/><path d="M60.196 295.994c0-16.368 9.443-26.44 9.443-26.44s-3.777 13.85-3.148 26.44h-6.295z" fill-opacity=".314" fill-rule="evenodd" stroke="#000" stroke-linejoin="round" stroke-width="4"/><path d="M128.935 180.805c-2.293 3.973-6.5 5.838-9.397 4.166s-3.385-6.249-1.09-10.22 6.5-5.84 9.396-4.167 3.385 6.249 1.09 10.22zM96.198 180.805c2.292 3.973 6.5 5.838 9.396 4.166s3.385-6.249 1.09-10.22-6.5-5.84-9.396-4.167-3.385 6.249-1.09 10.22z"/><path d="M105.904 45.143c-16.212-43.592-54.91 3.095-66.007-5.106-11.5-8.5-2-32-6-37.5s-22.61 33.058-15 47.5C26.35 64.177 57.911 62.973 78.59 62.83c11.674-.076 29.788-10.116 27.314-17.687z" fill="#502d16" fill-rule="evenodd" stroke="#000" stroke-width="4"/><path d="M57.778 114.84l52.195-.832s-2.037-20.809-26.734-21.017-25.46 21.849-25.46 21.849z" fill="#784421"/><path d="M66.004 98.22c-10.706 6.489-14.122 20.43-7.63 31.134s20.434 14.116 31.136 7.62 14.122-20.429 7.63-31.133-20.434-14.116-31.136-7.62z" fill="#fff" stroke="#fff" stroke-linecap="round" stroke-linejoin="round" stroke-width="4"/><path d="M73.48 109.13c-4.638 2.813-6.199 8.72-3.484 13.196s8.675 5.823 13.311 3.009 6.198-8.72 3.484-13.195-8.675-5.823-13.312-3.01z" fill="#070707" stroke="#fff" stroke-width="4"/><path d="M60.32 98.322l40.35 30.773s11.333-17.562-7.386-32.596-32.964 1.823-32.964 1.823z" fill="#784421"/><g><path d="M155.177 97.023c10.74 6.434 14.227 20.357 7.79 31.094s-20.361 14.22-31.097 7.78-14.226-20.357-7.79-31.094 20.362-14.22 31.097-7.78z" fill="#fff" stroke="#fff" stroke-linecap="round" stroke-linejoin="round" stroke-width="4"/><path d="M147.758 107.971c4.652 2.789 6.243 8.688 3.55 13.178s-8.644 5.867-13.295 3.077-6.243-8.688-3.551-13.178 8.645-5.867 13.296-3.077z" fill="#070707" stroke="#fff" stroke-width="4"/><path d="M160.862 97.096l-40.191 30.98s-11.424-17.505 7.218-32.635 32.973 1.655 32.973 1.655z" fill="#784421"/></g></svg>